<svg width="22" height="22" viewBox="0 0 22 22" fill="none" xmlns="http://www.w3.org/2000/svg">
    <path d="M20.75 13.2501L19.8266 12.5179C18.7756 11.6846 18.25 11.2679 18.25 10.7501C18.25 10.2323 18.7756 9.81568 19.8266 8.98234L20.75 8.25012M0.75 8.25012L1.6735 8.98234C2.7245 9.81568 3.25 10.2323 3.25 10.7501C3.25 11.2679 2.7245 11.6846 1.6735 12.5179L0.75 13.2501" />
    <path d="M13.6075 20.7501L13.7813 19.5737C13.979 18.2348 14.0778 17.5653 14.5298 17.3041C14.9818 17.0429 15.6104 17.2919 16.8675 17.7899L17.9722 18.2275M7.89238 0.750122L7.71862 1.92657C7.52087 3.26544 7.422 3.93489 6.97002 4.19611C6.51804 4.45734 5.88947 4.20834 4.63233 3.71034L3.52771 3.27277" />
    <path d="M2.97229 18.2298L4.16153 17.7918C5.51496 17.2933 6.1917 17.044 6.67808 17.305C7.16446 17.566 7.27056 18.2353 7.48275 19.5739L7.6692 20.7501M18.5278 3.2704L17.3386 3.70844C15.9852 4.20696 15.3084 4.45621 14.8221 4.19523C14.3357 3.93424 14.2296 3.26493 14.0174 1.92633L13.831 0.750122" />
    <path d="M18.5278 10.7504H2.97229M14.639 17.4165L6.86118 4.08337M14.639 4.08365L6.86118 17.4167" />
</svg>
