<svg width="22" height="22" viewBox="0 0 22 22" fill="none" xmlns="http://www.w3.org/2000/svg">
    <path d="M7.97221 10.7501C8.89268 10.7501 9.63888 10.0039 9.63888 9.08341C9.63888 8.16294 8.89268 7.41675 7.97221 7.41675C7.05173 7.41675 6.30554 8.16294 6.30554 9.08341C6.30554 10.0039 7.05173 10.7501 7.97221 10.7501Z" />
    <path d="M14.639 16.3056C15.5594 16.3056 16.3056 15.5594 16.3056 14.639C16.3056 13.7185 15.5594 12.9723 14.639 12.9723C13.7185 12.9723 12.9723 13.7185 12.9723 14.639C12.9723 15.5594 13.7185 16.3056 14.639 16.3056Z" />
    <path d="M19.0834 7.41658C20.0039 7.41658 20.7501 6.67039 20.7501 5.74992C20.7501 4.82944 20.0039 4.08325 19.0834 4.08325C18.1629 4.08325 17.4167 4.82944 17.4167 5.74992C17.4167 6.67039 18.1629 7.41658 19.0834 7.41658Z" />
    <path d="M15.6768 13.3015L18.5278 7.41675M9.17498 10.2705L13.1986 13.3015M1.86108 18.5279L6.96061 10.6159" />
    <path d="M20.75 20.75H8.52778C4.8613 20.75 3.02806 20.75 1.88903 19.611C0.75 18.4719 0.75 16.6387 0.75 12.9722V0.75" />
</svg>
